<svg xmlns="http://www.w3.org/2000/svg" viewBox="0 0 400 300"><g id="_227_city_buildings_flatline" data-name="#227_city_buildings_flatline"><rect x="198.18" y="108.78" width="19.6" height="6.29" fill="#fff"/><path d="M217.78,115.57h-19.6a.5.5,0,0,1-.5-.5v-6.29a.5.5,0,0,1,.5-.5h19.6a.51.51,0,0,1,.5.5v6.29A.5.5,0,0,1,217.78,115.57Zm-19.1-1h18.6v-5.29h-18.6Z" fill="#d1d3d4"/><rect x="94.78" y="144.06" width="25.77" height="101.21" fill="#fff"/><path d="M120.55,245.77H94.78a.5.5,0,0,1-.5-.5V144.06a.5.5,0,0,1,.5-.5h25.77a.5.5,0,0,1,.5.5V245.27A.5.5,0,0,1,120.55,245.77Zm-25.27-1h24.77V144.56H95.28Z" fill="#d1d3d4"/><polygon points="87.81 122.63 46.08 122.63 46.08 143.23 39.21 143.23 39.21 245.2 63.25 245.2 63.25 158.02 87.81 158.02 87.81 122.63" fill="#fff"/><path d="M63.25,245.7h-24a.5.5,0,0,1-.5-.5v-102a.5.5,0,0,1,.5-.5h6.37v-20.1a.5.5,0,0,1,.5-.5H87.81a.5.5,0,0,1,.5.5V158a.5.5,0,0,1-.5.5H63.75V245.2A.5.5,0,0,1,63.25,245.7Zm-23.54-1h23V158a.5.5,0,0,1,.5-.5H87.31V123.13H46.58v20.1a.5.5,0,0,1-.5.5H39.71Z" fill="#d1d3d4"/><polygon points="295.71 167.43 361.74 177.52 361.74 245.13 295.71 245.13 295.71 167.43" fill="#fff"/><path d="M361.74,245.63h-66a.5.5,0,0,1-.5-.5v-77.7a.52.52,0,0,1,.17-.38.51.51,0,0,1,.41-.11l66,10.08a.51.51,0,0,1,.42.5v67.61A.5.5,0,0,1,361.74,245.63Zm-65.53-1h65V178l-65-9.94Z" fill="#d1d3d4"/><rect x="186.6" y="115.02" width="43.91" height="130.18" fill="#fff"/><path d="M230.5,245.7H186.6a.5.5,0,0,1-.5-.5V115a.5.5,0,0,1,.5-.5h43.9a.5.5,0,0,1,.5.5V245.2A.5.5,0,0,1,230.5,245.7Zm-43.4-1H230V115.52H187.1Z" fill="#d1d3d4"/><rect x="230.5" y="97.33" width="24.94" height="147.94" fill="#fff"/><path d="M255.45,245.77H230.5a.5.5,0,0,1-.5-.5V97.33a.5.5,0,0,1,.5-.5h24.95a.5.5,0,0,1,.5.5V245.27A.5.5,0,0,1,255.45,245.77Zm-24.45-1H255V97.83H231Z" fill="#d1d3d4"/><polygon points="163.59 98.91 163.59 75.62 158.49 75.62 158.49 56.94 151.18 56.94 151.18 34.76 147.13 34.76 147.13 56.94 139.81 56.94 139.81 75.62 134.71 75.62 134.71 98.91 130.14 98.91 130.14 244.68 168.16 244.74 168.16 98.91 163.59 98.91" fill="#fff"/><path d="M168.16,245.24h0l-38-.07a.5.5,0,0,1-.5-.5V98.91a.51.51,0,0,1,.5-.5h4.07V75.62a.51.51,0,0,1,.5-.5h4.6V56.94a.5.5,0,0,1,.5-.5h6.82V34.76a.5.5,0,0,1,.5-.5h4.05a.5.5,0,0,1,.5.5V56.44h6.81a.5.5,0,0,1,.5.5V75.12h4.6a.5.5,0,0,1,.5.5V98.41h4.07a.51.51,0,0,1,.5.5V244.74a.49.49,0,0,1-.15.36A.5.5,0,0,1,168.16,245.24Zm-37.52-1.06,37,.06V99.41h-4.07a.5.5,0,0,1-.5-.5V76.12h-4.6a.5.5,0,0,1-.5-.5V57.44h-6.81a.5.5,0,0,1-.5-.5V35.26h-3.05V56.94a.5.5,0,0,1-.5.5h-6.82V75.62a.5.5,0,0,1-.5.5h-4.6V98.91a.5.5,0,0,1-.5.5h-4.07Z" fill="#d1d3d4"/><rect x="63.25" y="65.28" width="39.13" height="5.45" fill="#ffffff"/><path d="M102.38,71.23H63.25a.5.5,0,0,1-.5-.5V65.28a.5.5,0,0,1,.5-.5h39.13a.51.51,0,0,1,.5.5v5.45A.51.51,0,0,1,102.38,71.23Zm-38.63-1h38.13V65.78H63.75Z" fill="#231f20"/><rect x="66.36" y="59.84" width="36.02" height="5.45" fill="#ffffff"/><path d="M102.38,65.78h-36a.5.5,0,0,1-.5-.5V59.84a.5.5,0,0,1,.5-.5h36a.5.5,0,0,1,.5.5v5.44A.5.5,0,0,1,102.38,65.78Zm-35.52-1h35V60.34h-35Z" fill="#231f20"/><rect x="55.94" y="70.73" width="46.44" height="173.88" fill="#fff"/><path d="M102.38,245.11H55.94a.5.5,0,0,1-.5-.5V70.73a.5.5,0,0,1,.5-.5h46.44a.5.5,0,0,1,.5.5V244.61A.51.51,0,0,1,102.38,245.11Zm-45.94-1h45.44V71.23H56.44Z" fill="#231f20"/><rect x="94.78" y="70.73" width="7.6" height="173.88" fill="#231f20"/><path d="M102.38,70.73V244.61h-7.6V70.73h7.6m0-1h-7.6a1,1,0,0,0-1,1V244.61a1,1,0,0,0,1,1h7.6a1,1,0,0,0,1-1V70.73a1,1,0,0,0-1-1Z" fill="#231f20"/><rect x="55.94" y="77.89" width="38.84" height="4.87" fill="#ffffff"/><path d="M94.78,83.27H55.94a.5.5,0,0,1-.5-.5V77.89a.5.5,0,0,1,.5-.5H94.78a.5.5,0,0,1,.5.5v4.88A.5.5,0,0,1,94.78,83.27Zm-38.34-1H94.28V78.39H56.44Z" fill="#231f20"/><rect x="55.94" y="93.22" width="38.84" height="4.87" fill="#ffffff"/><path d="M94.78,98.59H55.94a.5.5,0,0,1-.5-.5V93.22a.5.5,0,0,1,.5-.5H94.78a.5.5,0,0,1,.5.5v4.87A.5.5,0,0,1,94.78,98.59Zm-38.34-1H94.28V93.72H56.44Z" fill="#231f20"/><rect x="55.94" y="108.54" width="38.84" height="4.87" fill="#ffffff"/><path d="M94.78,113.91H55.94a.5.5,0,0,1-.5-.5v-4.87a.5.5,0,0,1,.5-.5H94.78a.5.5,0,0,1,.5.5v4.87A.5.5,0,0,1,94.78,113.91Zm-38.34-1H94.28V109H56.44Z" fill="#231f20"/><rect x="55.94" y="123.86" width="38.84" height="4.87" fill="#ffffff"/><path d="M94.78,129.24H55.94a.5.5,0,0,1-.5-.5v-4.88a.5.5,0,0,1,.5-.5H94.78a.5.5,0,0,1,.5.5v4.88A.5.5,0,0,1,94.78,129.24Zm-38.34-1H94.28v-3.88H56.44Z" fill="#231f20"/><rect x="55.94" y="139.19" width="38.84" height="4.87" fill="#ffffff"/><path d="M94.78,144.56H55.94a.5.5,0,0,1-.5-.5v-4.87a.5.5,0,0,1,.5-.5H94.78a.5.5,0,0,1,.5.5v4.87A.5.5,0,0,1,94.78,144.56Zm-38.34-1H94.28v-3.87H56.44Z" fill="#231f20"/><rect x="55.94" y="154.51" width="38.84" height="4.87" fill="#ffffff"/><path d="M94.78,159.88H55.94a.5.5,0,0,1-.5-.5v-4.87a.5.5,0,0,1,.5-.5H94.78a.5.5,0,0,1,.5.5v4.87A.5.5,0,0,1,94.78,159.88Zm-38.34-1H94.28V155H56.44Z" fill="#231f20"/><rect x="55.94" y="169.83" width="38.84" height="4.87" fill="#ffffff"/><path d="M94.78,175.21H55.94a.5.5,0,0,1-.5-.5v-4.88a.5.5,0,0,1,.5-.5H94.78a.5.5,0,0,1,.5.5v4.88A.5.5,0,0,1,94.78,175.21Zm-38.34-1H94.28v-3.88H56.44Z" fill="#231f20"/><rect x="55.94" y="185.16" width="38.84" height="4.87" fill="#ffffff"/><path d="M94.78,190.53H55.94a.5.5,0,0,1-.5-.5v-4.87a.5.5,0,0,1,.5-.5H94.78a.5.5,0,0,1,.5.5V190A.5.5,0,0,1,94.78,190.53Zm-38.34-1H94.28v-3.87H56.44Z" fill="#231f20"/><rect x="55.94" y="200.48" width="38.84" height="4.87" fill="#ffffff"/><path d="M94.78,205.85H55.94a.5.5,0,0,1-.5-.5v-4.87a.5.5,0,0,1,.5-.5H94.78a.5.5,0,0,1,.5.5v4.87A.5.5,0,0,1,94.78,205.85Zm-38.34-1H94.28V201H56.44Z" fill="#231f20"/><rect x="55.94" y="215.8" width="38.84" height="4.87" fill="#ffffff"/><path d="M94.78,221.18H55.94a.5.5,0,0,1-.5-.5V215.8a.5.5,0,0,1,.5-.5H94.78a.5.5,0,0,1,.5.5v4.88A.5.5,0,0,1,94.78,221.18Zm-38.34-1H94.28V216.3H56.44Z" fill="#231f20"/><rect x="55.94" y="231.13" width="38.84" height="4.87" fill="#ffffff"/><path d="M94.78,236.5H55.94a.5.5,0,0,1-.5-.5v-4.87a.5.5,0,0,1,.5-.5H94.78a.5.5,0,0,1,.5.5V236A.5.5,0,0,1,94.78,236.5Zm-38.34-1H94.28v-3.87H56.44Z" fill="#231f20"/><rect x="117.87" y="186.06" width="78.14" height="2.88" fill="#fff"/><path d="M196,189.44H117.87a.5.5,0,0,1-.5-.5v-2.88a.5.5,0,0,1,.5-.5H196a.5.5,0,0,1,.5.5v2.88A.5.5,0,0,1,196,189.44Zm-77.64-1h77.14v-1.88H118.37Z" fill="#231f20"/><rect x="112.25" y="190.19" width="89.37" height="54.41" fill="#231f20"/><path d="M201.62,190.19v54.42H112.25V190.19h89.37m0-1H112.25a1,1,0,0,0-1,1v54.42a1,1,0,0,0,1,1h89.37a1,1,0,0,0,1-1V190.19a1,1,0,0,0-1-1Z" fill="#231f20"/><rect x="112.25" y="198.32" width="89.37" height="4.89" fill="#ffffff"/><path d="M201.62,203.71H112.25a.5.5,0,0,1-.5-.5v-4.89a.5.5,0,0,1,.5-.5h89.37a.5.5,0,0,1,.5.5v4.89A.5.5,0,0,1,201.62,203.71Zm-88.87-1h88.37v-3.89H112.75Z" fill="#231f20"/><path d="M119,203.71a.5.5,0,0,1-.5-.5v-4.89a.5.5,0,0,1,.5-.5.5.5,0,0,1,.5.5v4.89A.5.5,0,0,1,119,203.71Z" fill="#231f20"/><rect x="125.51" y="198.32" width="1" height="4.89" fill="#231f20"/><rect x="132.5" y="198.32" width="1" height="4.89" fill="#231f20"/><rect x="139.49" y="198.32" width="1" height="4.89" fill="#231f20"/><rect x="146.48" y="198.32" width="1" height="4.89" fill="#231f20"/><rect x="153.48" y="198.32" width="1" height="4.89" fill="#231f20"/><rect x="160.47" y="198.32" width="1" height="4.89" fill="#231f20"/><rect x="167.46" y="198.32" width="1" height="4.89" fill="#231f20"/><rect x="174.45" y="198.32" width="1" height="4.89" fill="#231f20"/><rect x="181.44" y="198.32" width="1" height="4.89" fill="#231f20"/><rect x="188.43" y="198.32" width="1" height="4.89" fill="#231f20"/><rect x="195.42" y="198.32" width="1" height="4.89" fill="#231f20"/><rect x="112.25" y="209.41" width="89.37" height="4.89" fill="#ffffff"/><path d="M201.62,214.8H112.25a.5.5,0,0,1-.5-.5v-4.89a.5.5,0,0,1,.5-.5h89.37a.5.5,0,0,1,.5.5v4.89A.5.5,0,0,1,201.62,214.8Zm-88.87-1h88.37v-3.89H112.75Z" fill="#231f20"/><path d="M119,214.8a.5.5,0,0,1-.5-.5v-4.89a.5.5,0,0,1,.5-.5.5.5,0,0,1,.5.5v4.89A.5.5,0,0,1,119,214.8Z" fill="#231f20"/><rect x="125.51" y="209.41" width="1" height="4.89" fill="#231f20"/><rect x="132.5" y="209.41" width="1" height="4.89" fill="#231f20"/><rect x="139.49" y="209.41" width="1" height="4.89" fill="#231f20"/><rect x="146.48" y="209.41" width="1" height="4.89" fill="#231f20"/><rect x="153.48" y="209.41" width="1" height="4.89" fill="#231f20"/><rect x="160.47" y="209.41" width="1" height="4.89" fill="#231f20"/><rect x="167.46" y="209.41" width="1" height="4.89" fill="#231f20"/><rect x="174.45" y="209.41" width="1" height="4.89" fill="#231f20"/><rect x="181.44" y="209.41" width="1" height="4.89" fill="#231f20"/><rect x="188.43" y="209.41" width="1" height="4.89" fill="#231f20"/><rect x="195.42" y="209.41" width="1" height="4.89" fill="#231f20"/><rect x="112.25" y="220.5" width="89.37" height="4.89" fill="#ffffff"/><path d="M201.62,225.89H112.25a.5.5,0,0,1-.5-.5V220.5a.5.5,0,0,1,.5-.5h89.37a.5.5,0,0,1,.5.5v4.89A.5.5,0,0,1,201.62,225.89Zm-88.87-1h88.37V221H112.75Z" fill="#231f20"/><path d="M119,225.89a.5.5,0,0,1-.5-.5V220.5a.5.5,0,0,1,.5-.5.5.5,0,0,1,.5.5v4.89A.5.5,0,0,1,119,225.89Z" fill="#231f20"/><rect x="125.51" y="220.5" width="1" height="4.89" fill="#231f20"/><rect x="132.5" y="220.5" width="1" height="4.89" fill="#231f20"/><rect x="139.49" y="220.5" width="1" height="4.89" fill="#231f20"/><rect x="146.48" y="220.5" width="1" height="4.89" fill="#231f20"/><rect x="153.48" y="220.5" width="1" height="4.89" fill="#231f20"/><rect x="160.47" y="220.5" width="1" height="4.89" fill="#231f20"/><rect x="167.46" y="220.5" width="1" height="4.89" fill="#231f20"/><rect x="174.45" y="220.5" width="1" height="4.89" fill="#231f20"/><rect x="181.44" y="220.5" width="1" height="4.89" fill="#231f20"/><rect x="188.43" y="220.5" width="1" height="4.89" fill="#231f20"/><rect x="195.42" y="220.5" width="1" height="4.89" fill="#231f20"/><rect x="112.25" y="231.59" width="89.37" height="4.89" fill="#ffffff"/><path d="M201.62,237H112.25a.5.5,0,0,1-.5-.5v-4.89a.5.5,0,0,1,.5-.5h89.37a.5.5,0,0,1,.5.5v4.89A.5.5,0,0,1,201.62,237Zm-88.87-1h88.37v-3.89H112.75Z" fill="#231f20"/><path d="M119,237a.5.5,0,0,1-.5-.5v-4.89a.5.5,0,0,1,.5-.5.5.5,0,0,1,.5.5v4.89A.5.5,0,0,1,119,237Z" fill="#231f20"/><rect x="125.51" y="231.59" width="1" height="4.89" fill="#231f20"/><rect x="132.5" y="231.59" width="1" height="4.89" fill="#231f20"/><rect x="139.49" y="231.59" width="1" height="4.89" fill="#231f20"/><rect x="146.48" y="231.59" width="1" height="4.89" fill="#231f20"/><rect x="153.48" y="231.59" width="1" height="4.89" fill="#231f20"/><rect x="160.47" y="231.59" width="1" height="4.89" fill="#231f20"/><rect x="167.46" y="231.59" width="1" height="4.89" fill="#231f20"/><rect x="174.45" y="231.59" width="1" height="4.89" fill="#231f20"/><rect x="181.44" y="231.59" width="1" height="4.89" fill="#231f20"/><rect x="188.43" y="231.59" width="1" height="4.89" fill="#231f20"/><rect x="195.42" y="231.59" width="1" height="4.89" fill="#231f20"/><rect x="304.56" y="92.1" width="41.05" height="152.51" fill="#fff"/><path d="M345.61,245.11H304.56a.5.5,0,0,1-.5-.5V92.1a.5.5,0,0,1,.5-.5h41.05a.5.5,0,0,1,.5.5V244.61A.5.5,0,0,1,345.61,245.11Zm-40.55-1h40.05V92.6H305.06Z" fill="#231f20"/><rect x="311.06" y="92.57" width="28.06" height="124.92" fill="#ffffff"/><path d="M339.11,218H311.06a.5.5,0,0,1-.5-.5V92.57a.5.5,0,0,1,.5-.5h28.05a.5.5,0,0,1,.5.5V217.48A.5.5,0,0,1,339.11,218Zm-27.55-1h27.05V93.07H311.56Z" fill="#231f20"/><rect x="304.56" y="92.1" width="6.5" height="152.51" fill="#fff"/><path d="M311.06,245.11h-6.5a.5.5,0,0,1-.5-.5V92.1a.5.5,0,0,1,.5-.5h6.5a.5.5,0,0,1,.5.5V244.61A.51.51,0,0,1,311.06,245.11Zm-6-1h5.5V92.6h-5.5Z" fill="#231f20"/><rect x="339.11" y="92.1" width="6.5" height="152.51" fill="#fff"/><path d="M345.61,245.11h-6.5a.51.51,0,0,1-.5-.5V92.1a.5.5,0,0,1,.5-.5h6.5a.5.5,0,0,1,.5.5V244.61A.5.5,0,0,1,345.61,245.11Zm-6-1h5.5V92.6h-5.5Z" fill="#231f20"/><path d="M339.11,99.41H311.06a.5.5,0,0,1-.5-.5.5.5,0,0,1,.5-.5h28.05a.5.5,0,0,1,.5.5A.5.5,0,0,1,339.11,99.41Z" fill="#231f20"/><path d="M339.11,105.34H311.06a.5.5,0,0,1-.5-.5.5.5,0,0,1,.5-.5h28.05a.5.5,0,0,1,.5.5A.5.5,0,0,1,339.11,105.34Z" fill="#231f20"/><path d="M339.11,111.27H311.06a.5.5,0,0,1,0-1h28.05a.5.5,0,0,1,0,1Z" fill="#231f20"/><path d="M339.11,117.2H311.06a.5.5,0,0,1-.5-.5.5.5,0,0,1,.5-.5h28.05a.5.5,0,0,1,.5.5A.5.5,0,0,1,339.11,117.2Z" fill="#231f20"/><path d="M339.11,123.13H311.06a.5.5,0,0,1-.5-.5.5.5,0,0,1,.5-.5h28.05a.5.5,0,0,1,.5.5A.5.5,0,0,1,339.11,123.13Z" fill="#231f20"/><path d="M339.11,129.06H311.06a.5.5,0,0,1-.5-.5.5.5,0,0,1,.5-.5h28.05a.5.5,0,0,1,.5.5A.5.5,0,0,1,339.11,129.06Z" fill="#231f20"/><path d="M339.11,135H311.06a.5.5,0,0,1-.5-.5.5.5,0,0,1,.5-.5h28.05a.5.5,0,0,1,.5.5A.5.5,0,0,1,339.11,135Z" fill="#231f20"/><path d="M339.11,140.91H311.06a.5.5,0,0,1-.5-.5.5.5,0,0,1,.5-.5h28.05a.5.5,0,0,1,.5.5A.5.5,0,0,1,339.11,140.91Z" fill="#231f20"/><path d="M339.11,146.84H311.06a.5.5,0,0,1,0-1h28.05a.5.5,0,0,1,0,1Z" fill="#231f20"/><path d="M339.11,152.77H311.06a.5.5,0,0,1,0-1h28.05a.5.5,0,0,1,0,1Z" fill="#231f20"/><path d="M339.11,158.7H311.06a.5.5,0,0,1-.5-.5.5.5,0,0,1,.5-.5h28.05a.5.5,0,0,1,.5.5A.5.5,0,0,1,339.11,158.7Z" fill="#231f20"/><path d="M339.11,164.63H311.06a.5.5,0,0,1-.5-.5.5.5,0,0,1,.5-.5h28.05a.5.5,0,0,1,.5.5A.5.5,0,0,1,339.11,164.63Z" fill="#231f20"/><path d="M339.11,170.55H311.06a.5.5,0,0,1-.5-.5.5.5,0,0,1,.5-.5h28.05a.5.5,0,0,1,.5.5A.5.5,0,0,1,339.11,170.55Z" fill="#231f20"/><path d="M339.11,176.48H311.06a.5.5,0,0,1-.5-.5.5.5,0,0,1,.5-.5h28.05a.5.5,0,0,1,.5.5A.5.5,0,0,1,339.11,176.48Z" fill="#231f20"/><path d="M339.11,182.41H311.06a.5.5,0,0,1,0-1h28.05a.5.5,0,0,1,0,1Z" fill="#231f20"/><path d="M339.11,188.34H311.06a.5.5,0,0,1,0-1h28.05a.5.5,0,0,1,0,1Z" fill="#231f20"/><path d="M339.11,194.27H311.06a.5.5,0,0,1-.5-.5.5.5,0,0,1,.5-.5h28.05a.5.5,0,0,1,.5.5A.5.5,0,0,1,339.11,194.27Z" fill="#231f20"/><path d="M339.11,200.2H311.06a.5.5,0,0,1-.5-.5.5.5,0,0,1,.5-.5h28.05a.5.5,0,0,1,.5.5A.5.5,0,0,1,339.11,200.2Z" fill="#231f20"/><path d="M339.11,206.12H311.06a.5.5,0,0,1-.5-.5.5.5,0,0,1,.5-.5h28.05a.5.5,0,0,1,.5.5A.5.5,0,0,1,339.11,206.12Z" fill="#231f20"/><path d="M339.11,212.05H311.06a.5.5,0,0,1-.5-.5.5.5,0,0,1,.5-.5h28.05a.5.5,0,0,1,.5.5A.5.5,0,0,1,339.11,212.05Z" fill="#231f20"/><path d="M339.11,218H311.06a.5.5,0,0,1-.5-.5.5.5,0,0,1,.5-.5h28.05a.5.5,0,0,1,.5.5A.5.5,0,0,1,339.11,218Z" fill="#231f20"/><rect x="304.56" y="92.1" width="6.5" height="152.51" fill="#fff"/><path d="M311.06,245.11h-6.5a.5.5,0,0,1-.5-.5V92.1a.5.5,0,0,1,.5-.5h6.5a.5.5,0,0,1,.5.5V244.61A.51.51,0,0,1,311.06,245.11Zm-6-1h5.5V92.6h-5.5Z" fill="#231f20"/><rect x="311.06" y="217.48" width="28.06" height="27.12" fill="#231f20"/><rect x="215.52" y="148.47" width="19.4" height="96.13" fill="#ffffff"/><path d="M234.92,245.11h-19.4a.51.51,0,0,1-.5-.5V148.47a.5.5,0,0,1,.5-.5h19.4a.5.5,0,0,1,.5.5v96.14A.5.5,0,0,1,234.92,245.11Zm-18.9-1h18.4V149H216Z" fill="#231f20"/><rect x="211.84" y="148.47" width="3.68" height="96.13" fill="#fff"/><path d="M215.52,245.11h-3.68a.5.5,0,0,1-.5-.5V148.47a.5.5,0,0,1,.5-.5h3.68a.5.5,0,0,1,.5.5v96.14A.5.5,0,0,1,215.52,245.11Zm-3.18-1H215V149h-2.68Z" fill="#231f20"/><rect x="234.92" y="148.47" width="3.68" height="96.13" fill="#fff"/><path d="M238.61,245.11h-3.69a.51.51,0,0,1-.5-.5V148.47a.5.5,0,0,1,.5-.5h3.69a.5.5,0,0,1,.5.5v96.14A.51.51,0,0,1,238.61,245.11Zm-3.19-1h2.69V149h-2.69Z" fill="#231f20"/><path d="M219.94,226.92a.5.5,0,0,1-.5-.5V148.47a.5.5,0,0,1,.5-.5.5.5,0,0,1,.5.5v77.95A.5.5,0,0,1,219.94,226.92Z" fill="#231f20"/><path d="M225.22,226.92a.5.5,0,0,1-.5-.5V148.47a.5.5,0,0,1,.5-.5.5.5,0,0,1,.5.5v77.95A.5.5,0,0,1,225.22,226.92Z" fill="#231f20"/><path d="M230.5,226.92a.5.5,0,0,1-.5-.5V148.47a.5.5,0,0,1,.5-.5.5.5,0,0,1,.5.5v77.95A.5.5,0,0,1,230.5,226.92Z" fill="#231f20"/><rect x="215.52" y="168.48" width="19.4" height="3.44" fill="#231f20"/><rect x="215.52" y="187.22" width="19.4" height="3.44" fill="#231f20"/><rect x="215.52" y="205.96" width="19.4" height="3.44" fill="#231f20"/><rect x="215.52" y="224.7" width="19.4" height="3.44" fill="#231f20"/><rect x="247.79" y="113.24" width="42.8" height="3.66" fill="#fff"/><path d="M290.59,117.41h-42.8a.51.51,0,0,1-.5-.5v-3.67a.51.51,0,0,1,.5-.5h42.8a.5.5,0,0,1,.5.5v3.67A.5.5,0,0,1,290.59,117.41Zm-42.3-1h41.8v-2.67h-41.8Z" fill="#231f20"/><rect x="251.25" y="116.9" width="35.89" height="3.52" fill="#fff"/><path d="M287.14,120.92H251.25a.5.5,0,0,1-.5-.5v-3.51a.5.5,0,0,1,.5-.5h35.89a.5.5,0,0,1,.5.5v3.51A.5.5,0,0,1,287.14,120.92Zm-35.39-1h34.89v-2.51H251.75Z" fill="#231f20"/><rect x="251.25" y="116.9" width="35.89" height="3.52" fill="#231f20"/><rect x="251.25" y="120.42" width="35.89" height="9.87" fill="#fff"/><path d="M287.14,130.79H251.25a.5.5,0,0,1-.5-.5v-9.87a.5.5,0,0,1,.5-.5h35.89a.5.5,0,0,1,.5.5v9.87A.5.5,0,0,1,287.14,130.79Zm-35.39-1h34.89v-8.87H251.75Z" fill="#231f20"/><rect x="251.25" y="120.42" width="35.89" height="9.87" fill="#ffffff"/><path d="M287.14,130.79H251.25a.5.5,0,0,1-.5-.5v-9.87a.5.5,0,0,1,.5-.5h35.89a.5.5,0,0,1,.5.5v9.87A.5.5,0,0,1,287.14,130.79Zm-35.39-1h34.89v-8.87H251.75Z" fill="#231f20"/><path d="M260,130.79a.5.5,0,0,1-.5-.5v-9.87a.51.51,0,0,1,.5-.5.5.5,0,0,1,.5.5v9.87A.5.5,0,0,1,260,130.79Z" fill="#231f20"/><path d="M269.19,130.79a.5.5,0,0,1-.5-.5v-9.87a.51.51,0,0,1,.5-.5.5.5,0,0,1,.5.5v9.87A.5.5,0,0,1,269.19,130.79Z" fill="#231f20"/><path d="M278.35,130.79a.5.5,0,0,1-.5-.5v-9.87a.5.5,0,0,1,.5-.5.51.51,0,0,1,.5.5v9.87A.5.5,0,0,1,278.35,130.79Z" fill="#231f20"/><rect x="247.79" y="129.57" width="42.8" height="3.66" fill="#fff"/><path d="M290.59,133.74h-42.8a.51.51,0,0,1-.5-.5v-3.67a.51.51,0,0,1,.5-.5h42.8a.5.5,0,0,1,.5.5v3.67A.5.5,0,0,1,290.59,133.74Zm-42.3-1h41.8v-2.67h-41.8Z" fill="#231f20"/><rect x="251.25" y="133.24" width="35.89" height="3.52" fill="#fff"/><path d="M287.14,137.25H251.25a.5.5,0,0,1-.5-.5v-3.51a.5.5,0,0,1,.5-.5h35.89a.5.5,0,0,1,.5.5v3.51A.5.5,0,0,1,287.14,137.25Zm-35.39-1h34.89v-2.51H251.75Z" fill="#231f20"/><rect x="251.25" y="133.24" width="35.89" height="3.52" fill="#231f20"/><rect x="251.25" y="136.75" width="35.89" height="9.87" fill="#fff"/><path d="M287.14,147.12H251.25a.5.5,0,0,1-.5-.5v-9.87a.5.5,0,0,1,.5-.5h35.89a.5.5,0,0,1,.5.5v9.87A.5.5,0,0,1,287.14,147.12Zm-35.39-1h34.89v-8.87H251.75Z" fill="#231f20"/><rect x="251.25" y="136.75" width="35.89" height="9.87" fill="#ffffff"/><path d="M287.14,147.12H251.25a.5.5,0,0,1-.5-.5v-9.87a.5.5,0,0,1,.5-.5h35.89a.5.5,0,0,1,.5.5v9.87A.5.5,0,0,1,287.14,147.12Zm-35.39-1h34.89v-8.87H251.75Z" fill="#231f20"/><path d="M260,147.12a.5.5,0,0,1-.5-.5v-9.87a.51.51,0,0,1,.5-.5.5.5,0,0,1,.5.5v9.87A.5.5,0,0,1,260,147.12Z" fill="#231f20"/><path d="M269.19,147.12a.5.5,0,0,1-.5-.5v-9.87a.51.51,0,0,1,.5-.5.5.5,0,0,1,.5.5v9.87A.5.5,0,0,1,269.19,147.12Z" fill="#231f20"/><path d="M278.35,147.12a.5.5,0,0,1-.5-.5v-9.87a.5.5,0,0,1,.5-.5.51.51,0,0,1,.5.5v9.87A.5.5,0,0,1,278.35,147.12Z" fill="#231f20"/><rect x="247.79" y="145.9" width="42.8" height="3.66" fill="#fff"/><path d="M290.59,150.07h-42.8a.51.51,0,0,1-.5-.5V145.9a.51.51,0,0,1,.5-.5h42.8a.5.5,0,0,1,.5.5v3.67A.5.5,0,0,1,290.59,150.07Zm-42.3-1h41.8V146.4h-41.8Z" fill="#231f20"/><rect x="251.25" y="149.57" width="35.89" height="3.52" fill="#fff"/><path d="M287.14,153.58H251.25a.5.5,0,0,1-.5-.5v-3.51a.5.5,0,0,1,.5-.5h35.89a.5.5,0,0,1,.5.5v3.51A.5.5,0,0,1,287.14,153.58Zm-35.39-1h34.89v-2.51H251.75Z" fill="#231f20"/><rect x="251.25" y="149.57" width="35.89" height="3.52" fill="#231f20"/><rect x="251.25" y="153.08" width="35.89" height="9.87" fill="#fff"/><path d="M287.14,163.45H251.25a.5.5,0,0,1-.5-.5v-9.87a.5.5,0,0,1,.5-.5h35.89a.5.5,0,0,1,.5.5V163A.5.5,0,0,1,287.14,163.45Zm-35.39-1h34.89v-8.87H251.75Z" fill="#231f20"/><rect x="251.25" y="153.08" width="35.89" height="9.87" fill="#ffffff"/><path d="M287.14,163.45H251.25a.5.5,0,0,1-.5-.5v-9.87a.5.5,0,0,1,.5-.5h35.89a.5.5,0,0,1,.5.5V163A.5.5,0,0,1,287.14,163.45Zm-35.39-1h34.89v-8.87H251.75Z" fill="#231f20"/><path d="M260,163.45a.5.5,0,0,1-.5-.5v-9.87a.51.51,0,0,1,.5-.5.5.5,0,0,1,.5.5V163A.5.5,0,0,1,260,163.45Z" fill="#231f20"/><path d="M269.19,163.45a.5.5,0,0,1-.5-.5v-9.87a.51.51,0,0,1,.5-.5.5.5,0,0,1,.5.5V163A.5.5,0,0,1,269.19,163.45Z" fill="#231f20"/><path d="M278.35,163.45a.5.5,0,0,1-.5-.5v-9.87a.5.5,0,0,1,.5-.5.51.51,0,0,1,.5.5V163A.5.5,0,0,1,278.35,163.45Z" fill="#231f20"/><rect x="247.79" y="162.23" width="42.8" height="3.66" fill="#fff"/><path d="M290.59,166.4h-42.8a.51.51,0,0,1-.5-.5v-3.66a.5.5,0,0,1,.5-.5h42.8a.5.5,0,0,1,.5.5v3.66A.5.5,0,0,1,290.59,166.4Zm-42.3-1h41.8v-2.66h-41.8Z" fill="#231f20"/><rect x="251.25" y="165.9" width="35.89" height="3.52" fill="#fff"/><path d="M287.14,169.91H251.25a.5.5,0,0,1-.5-.5V165.9a.5.5,0,0,1,.5-.5h35.89a.5.5,0,0,1,.5.5v3.51A.5.5,0,0,1,287.14,169.91Zm-35.39-1h34.89V166.4H251.75Z" fill="#231f20"/><rect x="251.25" y="165.9" width="35.89" height="3.52" fill="#231f20"/><rect x="251.25" y="169.41" width="35.89" height="9.87" fill="#fff"/><path d="M287.14,179.78H251.25a.5.5,0,0,1-.5-.5v-9.87a.5.5,0,0,1,.5-.5h35.89a.5.5,0,0,1,.5.5v9.87A.5.5,0,0,1,287.14,179.78Zm-35.39-1h34.89v-8.87H251.75Z" fill="#231f20"/><rect x="251.25" y="169.41" width="35.89" height="9.87" fill="#ffffff"/><path d="M287.14,179.78H251.25a.5.5,0,0,1-.5-.5v-9.87a.5.5,0,0,1,.5-.5h35.89a.5.5,0,0,1,.5.5v9.87A.5.5,0,0,1,287.14,179.78Zm-35.39-1h34.89v-8.87H251.75Z" fill="#231f20"/><path d="M260,179.78a.5.5,0,0,1-.5-.5v-9.87a.51.51,0,0,1,.5-.5.5.5,0,0,1,.5.5v9.87A.5.5,0,0,1,260,179.78Z" fill="#231f20"/><path d="M269.19,179.78a.5.5,0,0,1-.5-.5v-9.87a.51.51,0,0,1,.5-.5.5.5,0,0,1,.5.5v9.87A.5.5,0,0,1,269.19,179.78Z" fill="#231f20"/><path d="M278.35,179.78a.5.5,0,0,1-.5-.5v-9.87a.5.5,0,0,1,.5-.5.51.51,0,0,1,.5.5v9.87A.5.5,0,0,1,278.35,179.78Z" fill="#231f20"/><rect x="247.79" y="178.57" width="42.8" height="3.66" fill="#fff"/><path d="M290.59,182.73h-42.8a.51.51,0,0,1-.5-.5v-3.66a.5.5,0,0,1,.5-.5h42.8a.5.5,0,0,1,.5.5v3.66A.5.5,0,0,1,290.59,182.73Zm-42.3-1h41.8v-2.66h-41.8Z" fill="#231f20"/><rect x="251.25" y="182.23" width="35.89" height="3.52" fill="#fff"/><path d="M287.14,186.24H251.25a.5.5,0,0,1-.5-.5v-3.51a.5.5,0,0,1,.5-.5h35.89a.5.5,0,0,1,.5.5v3.51A.5.5,0,0,1,287.14,186.24Zm-35.39-1h34.89v-2.51H251.75Z" fill="#231f20"/><rect x="251.25" y="182.23" width="35.89" height="3.52" fill="#231f20"/><rect x="251.25" y="185.74" width="35.89" height="9.87" fill="#fff"/><path d="M287.14,196.11H251.25a.5.5,0,0,1-.5-.5v-9.87a.5.5,0,0,1,.5-.5h35.89a.5.5,0,0,1,.5.5v9.87A.5.5,0,0,1,287.14,196.11Zm-35.39-1h34.89v-8.87H251.75Z" fill="#231f20"/><rect x="251.25" y="185.74" width="35.89" height="9.87" fill="#ffffff"/><path d="M287.14,196.11H251.25a.5.5,0,0,1-.5-.5v-9.87a.5.5,0,0,1,.5-.5h35.89a.5.5,0,0,1,.5.5v9.87A.5.5,0,0,1,287.14,196.11Zm-35.39-1h34.89v-8.87H251.75Z" fill="#231f20"/><path d="M260,196.11a.5.5,0,0,1-.5-.5v-9.87a.51.51,0,0,1,.5-.5.5.5,0,0,1,.5.5v9.87A.5.5,0,0,1,260,196.11Z" fill="#231f20"/><path d="M269.19,196.11a.5.5,0,0,1-.5-.5v-9.87a.51.51,0,0,1,.5-.5.5.5,0,0,1,.5.5v9.87A.5.5,0,0,1,269.19,196.11Z" fill="#231f20"/><path d="M278.35,196.11a.5.5,0,0,1-.5-.5v-9.87a.5.5,0,0,1,.5-.5.51.51,0,0,1,.5.5v9.87A.5.5,0,0,1,278.35,196.11Z" fill="#231f20"/><rect x="247.79" y="194.9" width="42.8" height="3.66" fill="#fff"/><path d="M290.59,199.06h-42.8a.51.51,0,0,1-.5-.5V194.9a.5.5,0,0,1,.5-.5h42.8a.5.5,0,0,1,.5.5v3.66A.5.5,0,0,1,290.59,199.06Zm-42.3-1h41.8V195.4h-41.8Z" fill="#231f20"/><rect x="251.25" y="198.56" width="35.89" height="3.52" fill="#fff"/><path d="M287.14,202.57H251.25a.5.5,0,0,1-.5-.5v-3.51a.5.5,0,0,1,.5-.5h35.89a.5.5,0,0,1,.5.5v3.51A.5.5,0,0,1,287.14,202.57Zm-35.39-1h34.89v-2.51H251.75Z" fill="#231f20"/><rect x="251.25" y="198.56" width="35.89" height="3.52" fill="#231f20"/><rect x="251.25" y="202.07" width="35.89" height="9.87" fill="#fff"/><path d="M287.14,212.44H251.25a.5.5,0,0,1-.5-.5v-9.87a.5.5,0,0,1,.5-.5h35.89a.5.5,0,0,1,.5.5v9.87A.5.5,0,0,1,287.14,212.44Zm-35.39-1h34.89v-8.87H251.75Z" fill="#231f20"/><rect x="251.25" y="202.07" width="35.89" height="9.87" fill="#ffffff"/><path d="M287.14,212.44H251.25a.5.5,0,0,1-.5-.5v-9.87a.5.5,0,0,1,.5-.5h35.89a.5.5,0,0,1,.5.5v9.87A.5.5,0,0,1,287.14,212.44Zm-35.39-1h34.89v-8.87H251.75Z" fill="#231f20"/><path d="M260,212.44a.5.5,0,0,1-.5-.5v-9.87a.51.51,0,0,1,.5-.5.5.5,0,0,1,.5.5v9.87A.5.5,0,0,1,260,212.44Z" fill="#231f20"/><path d="M269.19,212.44a.5.5,0,0,1-.5-.5v-9.87a.51.51,0,0,1,.5-.5.5.5,0,0,1,.5.5v9.87A.5.5,0,0,1,269.19,212.44Z" fill="#231f20"/><path d="M278.35,212.44a.5.5,0,0,1-.5-.5v-9.87a.5.5,0,0,1,.5-.5.51.51,0,0,1,.5.5v9.87A.5.5,0,0,1,278.35,212.44Z" fill="#231f20"/><rect x="247.79" y="211.23" width="42.8" height="3.66" fill="#fff"/><path d="M290.59,215.39h-42.8a.51.51,0,0,1-.5-.5v-3.66a.5.5,0,0,1,.5-.5h42.8a.5.5,0,0,1,.5.5v3.66A.5.5,0,0,1,290.59,215.39Zm-42.3-1h41.8v-2.66h-41.8Z" fill="#231f20"/><rect x="251.25" y="214.89" width="35.89" height="3.52" fill="#fff"/><path d="M287.14,218.9H251.25a.5.5,0,0,1-.5-.5v-3.51a.5.5,0,0,1,.5-.5h35.89a.5.5,0,0,1,.5.5v3.51A.5.5,0,0,1,287.14,218.9Zm-35.39-1h34.89v-2.51H251.75Z" fill="#231f20"/><rect x="251.25" y="214.89" width="35.89" height="3.52" fill="#231f20"/><rect x="251.25" y="218.4" width="35.89" height="9.87" fill="#fff"/><path d="M287.14,228.77H251.25a.5.5,0,0,1-.5-.5V218.4a.5.5,0,0,1,.5-.5h35.89a.5.5,0,0,1,.5.5v9.87A.5.5,0,0,1,287.14,228.77Zm-35.39-1h34.89V218.9H251.75Z" fill="#231f20"/><rect x="251.25" y="218.4" width="35.89" height="9.87" fill="#ffffff"/><path d="M287.14,228.77H251.25a.5.5,0,0,1-.5-.5V218.4a.5.5,0,0,1,.5-.5h35.89a.5.5,0,0,1,.5.5v9.87A.5.5,0,0,1,287.14,228.77Zm-35.39-1h34.89V218.9H251.75Z" fill="#231f20"/><path d="M260,228.77a.5.5,0,0,1-.5-.5V218.4a.51.51,0,0,1,.5-.5.5.5,0,0,1,.5.5v9.87A.5.5,0,0,1,260,228.77Z" fill="#231f20"/><path d="M269.19,228.77a.5.5,0,0,1-.5-.5V218.4a.51.51,0,0,1,.5-.5.5.5,0,0,1,.5.5v9.87A.5.5,0,0,1,269.19,228.77Z" fill="#231f20"/><path d="M278.35,228.77a.5.5,0,0,1-.5-.5V218.4a.5.5,0,0,1,.5-.5.51.51,0,0,1,.5.5v9.87A.5.5,0,0,1,278.35,228.77Z" fill="#231f20"/><rect x="247.79" y="227.56" width="42.8" height="3.66" fill="#fff"/><path d="M290.59,231.72h-42.8a.51.51,0,0,1-.5-.5v-3.66a.5.5,0,0,1,.5-.5h42.8a.5.5,0,0,1,.5.5v3.66A.5.5,0,0,1,290.59,231.72Zm-42.3-1h41.8v-2.66h-41.8Z" fill="#231f20"/><rect x="251.25" y="231.22" width="35.89" height="3.52" fill="#fff"/><path d="M287.14,235.24H251.25a.5.5,0,0,1-.5-.5v-3.52a.5.5,0,0,1,.5-.5h35.89a.5.5,0,0,1,.5.5v3.52A.5.5,0,0,1,287.14,235.24Zm-35.39-1h34.89v-2.52H251.75Z" fill="#231f20"/><rect x="251.25" y="231.22" width="35.89" height="3.52" fill="#231f20"/><rect x="251.25" y="234.73" width="35.89" height="9.87" fill="#fff"/><path d="M287.14,245.11H251.25a.5.5,0,0,1-.5-.5v-9.87a.5.5,0,0,1,.5-.5h35.89a.5.5,0,0,1,.5.5v9.87A.5.5,0,0,1,287.14,245.11Zm-35.39-1h34.89v-8.87H251.75Z" fill="#231f20"/><rect x="251.25" y="234.73" width="35.89" height="9.87" fill="#ffffff"/><path d="M287.14,245.11H251.25a.5.5,0,0,1-.5-.5v-9.87a.5.5,0,0,1,.5-.5h35.89a.5.5,0,0,1,.5.5v9.87A.5.5,0,0,1,287.14,245.11Zm-35.39-1h34.89v-8.87H251.75Z" fill="#231f20"/><path d="M260,245.11a.51.51,0,0,1-.5-.5v-9.87a.5.5,0,0,1,.5-.5.5.5,0,0,1,.5.5v9.87A.5.5,0,0,1,260,245.11Z" fill="#231f20"/><path d="M269.19,245.11a.51.51,0,0,1-.5-.5v-9.87a.5.5,0,0,1,.5-.5.5.5,0,0,1,.5.5v9.87A.5.5,0,0,1,269.19,245.11Z" fill="#231f20"/><path d="M278.35,245.11a.5.5,0,0,1-.5-.5v-9.87a.5.5,0,0,1,.5-.5.5.5,0,0,1,.5.5v9.87A.51.51,0,0,1,278.35,245.11Z" fill="#231f20"/><path d="M120.88,245.77c-50.36,0-88.57,0-89.73-.14a.5.5,0,0,1-.45-.54.52.52,0,0,1,.55-.46c3.33.31,334.21,0,337.55,0h0a.5.5,0,0,1,.5.5.5.5,0,0,1-.5.5C359.82,245.64,217.84,245.77,120.88,245.77Z" fill="#231f20"/><rect x="107.67" y="138.21" width="11.35" height="5.85" fill="#fff"/><path d="M119,144.56H107.67a.5.5,0,0,1-.5-.5v-5.85a.5.5,0,0,1,.5-.5H119a.5.5,0,0,1,.5.5v5.85A.5.5,0,0,1,119,144.56Zm-10.85-1h10.35v-4.85H108.17Z" fill="#d1d3d4"/></g></svg>